<svg width="640" height="512" viewBox="0 0 640 512" fill="none" xmlns="http://www.w3.org/2000/svg">
<path d="M176 256C220.11 256 256 220.11 256 176C256 131.89 220.11 96 176 96C131.89 96 96 131.89 96 176C96 220.11 131.89 256 176 256ZM528 128H304C295.16 128 288 135.16 288 144V288H64V80C64 71.16 56.84 64 48 64H16C7.16 64 0 71.16 0 80V432C0 440.84 7.16 448 16 448H48C56.84 448 64 440.84 64 432V384H576V432C576 440.84 583.16 448 592 448H624C632.84 448 640 440.84 640 432V240C640 178.14 589.86 128 528 128Z" fill="white"/>
</svg>
