<svg width="512" height="512" viewBox="0 0 512 512" fill="none" xmlns="http://www.w3.org/2000/svg">
<path d="M459.372 151.675C459.697 156.224 459.697 160.775 459.697 165.325C459.697 304.099 354.113 464 161.138 464C101.685 464 46.4572 446.774 0 416.876C8.44703 417.85 16.5681 418.175 25.3401 418.175C74.3953 418.175 119.553 401.601 155.615 373.325C109.482 372.35 70.8223 342.125 57.5022 300.525C64.0003 301.499 70.4973 302.15 77.3203 302.15C86.7413 302.15 96.1634 300.849 104.934 298.575C56.8532 288.824 20.7911 246.575 20.7911 195.55V194.25C34.7601 202.05 51.0052 206.925 68.2223 207.575C39.9582 188.724 21.4411 156.55 21.4411 120.149C21.4411 100.65 26.6381 82.7746 35.7351 67.1745C87.3903 130.874 165.036 172.474 252.101 177.025C250.477 169.224 249.502 161.1 249.502 152.975C249.502 95.1245 296.284 48 354.436 48C384.65 48 411.939 60.675 431.107 81.15C454.822 76.6002 477.563 67.8248 497.706 55.8001C489.908 80.1756 473.34 100.651 451.574 113.65C472.691 111.376 493.158 105.525 512 97.4004C497.708 118.2 479.839 136.724 459.372 151.675V151.675Z" fill="white"/>
</svg>
