<svg width="640" height="512" viewBox="0 0 640 512" fill="none" xmlns="http://www.w3.org/2000/svg">
<g clip-path="url(#clip0)">
<path d="M624.003 432.007H16.0028C7.16284 432.007 0.00284262 439.167 0.00284262 448.007V480.007C0.00284262 488.847 7.16284 496.007 16.0028 496.007H624.003C632.843 496.007 640.003 488.847 640.003 480.007V448.007C640.003 439.167 632.843 432.007 624.003 432.007ZM80.5528 325.277C86.8328 332.117 95.6528 335.997 104.883 335.987L235.423 335.807C245.725 335.793 255.879 333.354 265.063 328.687L556.023 181.037C582.763 167.467 606.733 148.097 623.043 122.727C641.353 94.2472 643.343 73.6372 636.113 59.0772C628.903 44.5072 611.373 33.8072 577.863 31.6272C548.013 29.6872 518.323 37.5472 491.583 51.1072L393.073 101.097L174.373 19.0372C171.743 17.2658 168.688 16.2289 165.524 16.0338C162.359 15.8386 159.2 16.4923 156.373 17.9272L90.6228 51.2972C79.9528 56.7072 77.3728 70.9472 85.4528 79.8272L241.673 177.927L138.463 230.307L66.1128 193.837C63.6202 192.58 60.867 191.927 58.0755 191.931C55.2839 191.934 52.5323 192.594 50.0428 193.857L9.91284 214.227C-0.527157 219.527 -3.27716 233.347 4.34284 242.307L80.5528 325.277Z" fill="#FFFDFD"/>
</g>
<defs>
<clipPath id="clip0">
<rect width="640" height="512" fill="white"/>
</clipPath>
</defs>
</svg>
