<svg width="550" height="419" viewBox="0 0 550 419" fill="none" xmlns="http://www.w3.org/2000/svg">
<path d="M524.845 101.544C518.847 82.1903 501.176 66.9475 478.74 61.7747C438.072 52.375 275 52.375 275 52.375C275 52.375 111.929 52.375 71.2604 61.7747C48.824 66.9483 31.1533 82.1903 25.1559 101.544C14.259 136.625 14.259 209.818 14.259 209.818C14.259 209.818 14.259 283.01 25.1559 318.091C31.1533 337.445 48.824 352.052 71.2604 357.225C111.929 366.625 275 366.625 275 366.625C275 366.625 438.071 366.625 478.74 357.225C501.176 352.052 518.847 337.445 524.845 318.091C535.741 283.01 535.741 209.818 535.741 209.818C535.741 209.818 535.741 136.625 524.845 101.544V101.544ZM221.666 276.271V143.364L357.962 209.819L221.666 276.271V276.271Z" fill="white"/>
</svg>
